<svg width="18" height="18" viewBox="0 0 18 18" fill="none" xmlns="http://www.w3.org/2000/svg">
<path fill-rule="evenodd" clip-rule="evenodd" d="M5.25 1.3125C5.56066 1.3125 5.8125 1.56434 5.8125 1.875V2.44704C6.30902 2.43749 6.85605 2.43749 7.45769 2.4375H10.5423C11.1439 2.43749 11.691 2.43749 12.1875 2.44704V1.875C12.1875 1.56434 12.4393 1.3125 12.75 1.3125C13.0607 1.3125 13.3125 1.56434 13.3125 1.875V2.49532C13.5075 2.51018 13.6921 2.52886 13.8668 2.55235C14.7461 2.67057 15.4578 2.91966 16.0191 3.48093C16.5803 4.0422 16.8294 4.75392 16.9476 5.63323C16.9854 5.91425 17.0108 6.22094 17.0278 6.55505C17.0502 6.61579 17.0625 6.68146 17.0625 6.75C17.0625 6.80199 17.0554 6.85233 17.0422 6.90012C17.0625 7.50161 17.0625 8.18456 17.0625 8.95769V10.5423C17.0625 11.9206 17.0625 13.0124 16.9476 13.8668C16.8294 14.7461 16.5803 15.4578 16.0191 16.0191C15.4578 16.5803 14.7461 16.8294 13.8668 16.9476C13.0124 17.0625 11.9206 17.0625 10.5423 17.0625H7.45769C6.07937 17.0625 4.98764 17.0625 4.13323 16.9476C3.25392 16.8294 2.5422 16.5803 1.98093 16.0191C1.41966 15.4578 1.17057 14.7461 1.05235 13.8668C0.937479 13.0124 0.937488 11.9206 0.9375 10.5423V8.95769C0.937494 8.18456 0.937488 7.50161 0.957757 6.90013C0.944554 6.85233 0.937501 6.80199 0.937501 6.75C0.937501 6.68146 0.949758 6.61579 0.972202 6.55505C0.989216 6.22094 1.01457 5.91425 1.05235 5.63323C1.17057 4.75392 1.41966 4.0422 1.98093 3.48093C2.5422 2.91966 3.25392 2.67057 4.13323 2.55235C4.30793 2.52886 4.49254 2.51018 4.6875 2.49532V1.875C4.6875 1.56434 4.93934 1.3125 5.25 1.3125ZM2.07231 7.3125C2.06274 7.80205 2.0625 8.35949 2.0625 9V10.5C2.0625 11.9301 2.0637 12.9461 2.16732 13.7169C2.26877 14.4714 2.45902 14.9062 2.77643 15.2236C3.09383 15.541 3.52857 15.7312 4.28314 15.8327C5.05388 15.9363 6.06988 15.9375 7.5 15.9375H10.5C11.9301 15.9375 12.9461 15.9363 13.7169 15.8327C14.4714 15.7312 14.9062 15.541 15.2236 15.2236C15.541 14.9062 15.7312 14.4714 15.8327 13.7169C15.9363 12.9461 15.9375 11.9301 15.9375 10.5V9C15.9375 8.35949 15.9373 7.80205 15.9277 7.3125H2.07231ZM15.8762 6.1875H2.12376C2.13577 6.04546 2.15014 5.91093 2.16732 5.78314C2.26877 5.02857 2.45902 4.59383 2.77643 4.27643C3.09383 3.95902 3.52857 3.76877 4.28314 3.66732C5.05388 3.56369 6.06989 3.5625 7.5 3.5625H10.5C11.9301 3.5625 12.9461 3.56369 13.7169 3.66732C14.4714 3.76877 14.9062 3.95902 15.2236 4.27643C15.541 4.59383 15.7312 5.02857 15.8327 5.78314C15.8499 5.91093 15.8642 6.04546 15.8762 6.1875Z" fill="white"/>
</svg>
