<svg width="20" height="20" viewBox="0 0 20 20" fill="none" xmlns="http://www.w3.org/2000/svg">
<path fill-rule="evenodd" clip-rule="evenodd" d="M0.987374 0.038691C0.594417 -0.0922948 0.169677 0.120075 0.038691 0.513033C-0.0922948 0.90599 0.120075 1.33073 0.513033 1.46172L0.777944 1.55002C1.45435 1.77549 1.90155 1.92575 2.231 2.07901C2.54296 2.22414 2.67784 2.34093 2.76426 2.46083C2.85068 2.58074 2.91883 2.74562 2.95785 3.08747C2.99907 3.44848 3.0002 3.92024 3.0002 4.63324L3.0002 7.30508C3.00018 8.67267 3.00017 9.77499 3.11673 10.642C3.23774 11.5421 3.49664 12.2999 4.09855 12.9019C4.70047 13.5038 5.45834 13.7627 6.35845 13.8837C7.22541 14.0002 8.32773 14.0002 9.69531 14.0002H17.7502C18.1644 14.0002 18.5002 13.6644 18.5002 13.2502C18.5002 12.836 18.1644 12.5002 17.7502 12.5002H9.7502C8.31479 12.5002 7.31367 12.4986 6.55832 12.3971C5.82455 12.2984 5.43598 12.118 5.15921 11.8412C5.06252 11.7445 4.97758 11.6342 4.90378 11.5002H14.8087C15.257 11.5002 15.6514 11.5003 15.9788 11.4649C16.3332 11.4266 16.6766 11.3416 16.9997 11.1286C17.3228 10.9156 17.5362 10.6334 17.711 10.3227C17.8724 10.0357 18.0278 9.67321 18.2044 9.26112L18.6712 8.17186C19.0557 7.27486 19.3773 6.52441 19.5383 5.91406C19.7063 5.27731 19.75 4.6125 19.3538 4.0116C18.9576 3.41069 18.3293 3.18901 17.6778 3.09257C17.0534 3.00013 16.2369 3.00016 15.261 3.0002L4.45696 3.0002C4.45421 2.97221 4.45129 2.94459 4.44817 2.91732C4.39282 2.4325 4.27222 1.98764 3.98112 1.58377C3.69002 1.17989 3.30613 0.9248 2.8637 0.718976C2.44746 0.525342 1.91814 0.34892 1.29176 0.140153L0.987374 0.038691ZM4.5002 4.5002C4.50021 4.53045 4.50021 4.56091 4.5002 4.5916L4.5002 7.2502C4.5002 8.42218 4.50127 9.30464 4.55693 10.0002H14.772C15.2679 10.0002 15.5805 9.99919 15.8178 9.97357C16.037 9.9499 16.1213 9.91104 16.174 9.87634C16.2266 9.84163 16.2955 9.77945 16.4037 9.58727C16.5207 9.37923 16.6448 9.09232 16.8401 8.63652L17.2687 7.63652C17.6832 6.66932 17.9587 6.02152 18.0879 5.53145C18.2136 5.05522 18.1499 4.91069 18.1015 4.83734C18.0532 4.76398 17.9454 4.64853 17.4582 4.5764C16.9568 4.50218 16.2529 4.5002 15.2006 4.5002H4.5002Z" fill="#A6A6A6"/>
<path fill-rule="evenodd" clip-rule="evenodd" d="M4.0002 17.2502C4.0002 18.4928 5.00756 19.5002 6.2502 19.5002C7.49284 19.5002 8.5002 18.4928 8.5002 17.2502C8.5002 16.0076 7.49284 15.0002 6.2502 15.0002C5.00756 15.0002 4.0002 16.0076 4.0002 17.2502ZM6.2502 18.0002C5.83599 18.0002 5.5002 17.6644 5.5002 17.2502C5.5002 16.836 5.83599 16.5002 6.2502 16.5002C6.66442 16.5002 7.0002 16.836 7.0002 17.2502C7.0002 17.6644 6.66442 18.0002 6.2502 18.0002Z" fill="#A6A6A6"/>
<path fill-rule="evenodd" clip-rule="evenodd" d="M15.2502 19.5003C14.0076 19.5003 13.0002 18.4929 13.0002 17.2503C13.0002 16.0076 14.0076 15.0003 15.2502 15.0003C16.4928 15.0003 17.5002 16.0076 17.5002 17.2503C17.5002 18.4929 16.4928 19.5003 15.2502 19.5003ZM14.5002 17.2503C14.5002 17.6645 14.836 18.0003 15.2502 18.0003C15.6644 18.0003 16.0002 17.6645 16.0002 17.2503C16.0002 16.8361 15.6644 16.5003 15.2502 16.5003C14.836 16.5003 14.5002 16.8361 14.5002 17.2503Z" fill="#A6A6A6"/>
</svg>
