<svg width="18" height="18" viewBox="0 0 18 18" fill="none" xmlns="http://www.w3.org/2000/svg">
<g clip-path="url(#clip0_927_1004)">
<path fill-rule="evenodd" clip-rule="evenodd" d="M9 2.0625C5.16852 2.0625 2.0625 5.16852 2.0625 9C2.0625 12.8315 5.16852 15.9375 9 15.9375C12.8315 15.9375 15.9375 12.8315 15.9375 9C15.9375 5.16852 12.8315 2.0625 9 2.0625ZM0.9375 9C0.9375 4.5472 4.5472 0.9375 9 0.9375C13.4528 0.9375 17.0625 4.5472 17.0625 9C17.0625 13.4528 13.4528 17.0625 9 17.0625C4.5472 17.0625 0.9375 13.4528 0.9375 9ZM9 3.9375C9.31066 3.9375 9.5625 4.18934 9.5625 4.5V4.73755C10.7853 4.9565 11.8125 5.87521 11.8125 7.125C11.8125 7.43566 11.5607 7.6875 11.25 7.6875C10.9393 7.6875 10.6875 7.43566 10.6875 7.125C10.6875 6.4918 10.0324 5.8125 9 5.8125C7.96764 5.8125 7.3125 6.4918 7.3125 7.125C7.3125 7.7582 7.96764 8.4375 9 8.4375C10.4529 8.4375 11.8125 9.43713 11.8125 10.875C11.8125 12.1248 10.7853 13.0435 9.5625 13.2624V13.5C9.5625 13.8107 9.31066 14.0625 9 14.0625C8.68934 14.0625 8.4375 13.8107 8.4375 13.5V13.2624C7.21468 13.0435 6.1875 12.1248 6.1875 10.875C6.1875 10.5643 6.43934 10.3125 6.75 10.3125C7.06066 10.3125 7.3125 10.5643 7.3125 10.875C7.3125 11.5082 7.96764 12.1875 9 12.1875C10.0324 12.1875 10.6875 11.5082 10.6875 10.875C10.6875 10.2418 10.0324 9.5625 9 9.5625C7.54708 9.5625 6.1875 8.56287 6.1875 7.125C6.1875 5.87521 7.21468 4.9565 8.4375 4.73755V4.5C8.4375 4.18934 8.68934 3.9375 9 3.9375Z" fill="#656565"/>
</g>
<defs>
<clipPath id="clip0_927_1004">
<rect width="18" height="18" fill="white"/>
</clipPath>
</defs>
</svg>
