<svg width="16" height="18" viewBox="0 0 16 18" fill="none" xmlns="http://www.w3.org/2000/svg">
<path d="M5.93989 2.49995C6.19758 1.77086 6.89295 1.25 7.70836 1.25C8.52377 1.25 9.21913 1.77086 9.47683 2.49995C9.59186 2.82539 9.94894 2.99597 10.2744 2.88094C10.5998 2.76591 10.7704 2.40884 10.6554 2.08339C10.2267 0.870489 9.06998 0 7.70836 0C6.34674 0 5.19004 0.870489 4.76134 2.08339C4.64631 2.40884 4.81689 2.76591 5.14233 2.88094C5.46778 2.99597 5.82486 2.82539 5.93989 2.49995Z" fill="#A6A6A6"/>
<path d="M0 3.95833C0 3.61316 0.279822 3.33333 0.625 3.33333H14.7917C15.1369 3.33333 15.4167 3.61316 15.4167 3.95833C15.4167 4.30351 15.1369 4.58333 14.7917 4.58333H0.625C0.279822 4.58333 0 4.30351 0 3.95833Z" fill="#A6A6A6"/>
<path d="M1.97238 5.41805C2.31679 5.39509 2.61461 5.65568 2.63757 6.00009L3.02085 11.7494C3.09574 12.8726 3.14909 13.6541 3.26623 14.2421C3.37986 14.8125 3.53847 15.1144 3.76631 15.3275C3.99416 15.5407 4.30595 15.6789 4.88262 15.7543C5.47712 15.8321 6.26046 15.8333 7.38616 15.8333H8.03063C9.15634 15.8333 9.93967 15.8321 10.5342 15.7543C11.1108 15.6789 11.4226 15.5407 11.6505 15.3275C11.8783 15.1144 12.0369 14.8125 12.1506 14.2421C12.2677 13.6541 12.3211 12.8726 12.3959 11.7494L12.7792 6.00009C12.8022 5.65568 13.1 5.39509 13.4444 5.41805C13.7888 5.44101 14.0494 5.73883 14.0265 6.08324L13.6403 11.8764C13.569 12.9453 13.5115 13.8088 13.3765 14.4863C13.2361 15.1907 12.9975 15.7791 12.5045 16.2404C12.0115 16.7016 11.4085 16.9006 10.6963 16.9938C10.0113 17.0834 9.1459 17.0833 8.07458 17.0833H7.34222C6.2709 17.0833 5.40553 17.0834 4.72049 16.9938C4.00828 16.9006 3.40533 16.7016 2.91233 16.2404C2.41934 15.7791 2.18065 15.1907 2.04032 14.4863C1.90534 13.8088 1.84779 12.9453 1.77655 11.8764L1.39034 6.08324C1.36738 5.73883 1.62797 5.44101 1.97238 5.41805Z" fill="#A6A6A6"/>
</svg>
