<svg width="16" height="16" viewBox="0 0 16 16" fill="none" xmlns="http://www.w3.org/2000/svg">
<g clip-path="url(#clip0_927_1614)">
<path d="M14.6668 6.99998V7.99998C14.6668 11.1427 14.6668 12.714 13.6905 13.6903C12.7142 14.6666 11.1429 14.6666 8.00016 14.6666C4.85747 14.6666 3.28612 14.6666 2.30981 13.6903C1.3335 12.714 1.3335 11.1427 1.3335 7.99998C1.3335 4.85728 1.3335 3.28593 2.30981 2.30962C3.28612 1.33331 4.85747 1.33331 8.00016 1.33331H9.00016" stroke="#282828" stroke-linecap="round"/>
<path d="M11.1015 2.30335L11.5341 1.87081C12.2507 1.15415 13.4127 1.15415 14.1293 1.87081C14.846 2.58747 14.846 3.74941 14.1293 4.46607L13.6968 4.89862M11.1015 2.30335C11.1015 2.30335 11.1556 3.22251 11.9666 4.03353C12.7776 4.84455 13.6968 4.89862 13.6968 4.89862M11.1015 2.30335L7.12495 6.27993C6.8556 6.54927 6.72093 6.68395 6.60512 6.83244C6.46849 7.0076 6.35136 7.19712 6.25579 7.39766C6.17477 7.56765 6.11454 7.74833 5.99409 8.1097L5.60844 9.26665M13.6968 4.89862L9.72021 8.87519C9.45087 9.14454 9.3162 9.27921 9.16771 9.39503C8.99254 9.53165 8.80302 9.64878 8.60249 9.74435C8.43249 9.82537 8.25181 9.8856 7.89045 10.006L6.7335 10.3917M6.7335 10.3917L5.98489 10.6412C5.80706 10.7005 5.611 10.6542 5.47846 10.5217C5.34591 10.3891 5.29963 10.1931 5.35891 10.0153L5.60844 9.26665M6.7335 10.3917L5.60844 9.26665" stroke="#282828"/>
</g>
<defs>
<clipPath id="clip0_927_1614">
<rect width="16" height="16" fill="white"/>
</clipPath>
</defs>
</svg>
