<svg width="20" height="20" viewBox="0 0 20 20" fill="none" xmlns="http://www.w3.org/2000/svg">
<path fill-rule="evenodd" clip-rule="evenodd" d="M7.70817 13.3333C7.70817 12.0677 8.73419 11.0417 9.99984 11.0417C11.2655 11.0417 12.2915 12.0677 12.2915 13.3333C12.2915 14.599 11.2655 15.625 9.99984 15.625C8.73419 15.625 7.70817 14.599 7.70817 13.3333ZM9.99984 12.2917C9.42454 12.2917 8.95817 12.758 8.95817 13.3333C8.95817 13.9086 9.42454 14.375 9.99984 14.375C10.5751 14.375 11.0415 13.9086 11.0415 13.3333C11.0415 12.758 10.5751 12.2917 9.99984 12.2917Z" fill="#656565"/>
<path fill-rule="evenodd" clip-rule="evenodd" d="M4.37484 7.75231V6.66667C4.37484 3.56007 6.89324 1.04167 9.99984 1.04167C13.1064 1.04167 15.6248 3.56007 15.6248 6.66667V7.75231C15.8139 7.7656 15.992 7.78291 16.1596 7.80544C16.9097 7.90629 17.5413 8.12203 18.0429 8.62363C18.5445 9.12523 18.7602 9.75679 18.8611 10.5069C18.9582 11.2294 18.9582 12.148 18.9582 13.2876V13.3791C18.9582 14.5187 18.9582 15.4373 18.8611 16.1598C18.7602 16.9099 18.5445 17.5415 18.0429 18.043C17.5413 18.5446 16.9097 18.7604 16.1596 18.8612C15.4372 18.9584 14.5186 18.9584 13.3789 18.9583H6.62078C5.48112 18.9584 4.56252 18.9584 3.84005 18.8612C3.08996 18.7604 2.45839 18.5446 1.9568 18.043C1.4552 17.5415 1.23945 16.9099 1.13861 16.1598C1.04147 15.4373 1.04149 14.5187 1.0415 13.3791V13.2876C1.04149 12.148 1.04147 11.2293 1.13861 10.5069C1.23945 9.75679 1.4552 9.12523 1.9568 8.62363C2.45839 8.12203 3.08996 7.90629 3.84005 7.80544C4.00765 7.78291 4.18581 7.7656 4.37484 7.75231ZM5.62484 6.66667C5.62484 4.25043 7.58359 2.29167 9.99984 2.29167C12.4161 2.29167 14.3748 4.25043 14.3748 6.66667V7.71121C14.0636 7.70833 13.7318 7.70833 13.3789 7.70834H6.62078C6.26784 7.70833 5.93611 7.70833 5.62484 7.71121V6.66667ZM4.00661 9.04429C3.39513 9.1265 3.07132 9.27688 2.84068 9.50751C2.61004 9.73815 2.45967 10.062 2.37746 10.6734C2.29283 11.3029 2.29151 12.1372 2.29151 13.3333C2.29151 14.5295 2.29283 15.3638 2.37746 15.9932C2.45967 16.6047 2.61004 16.9285 2.84068 17.1592C3.07132 17.3898 3.39513 17.5402 4.00661 17.6224C4.63606 17.707 5.47032 17.7083 6.6665 17.7083H13.3332C14.5294 17.7083 15.3636 17.707 15.9931 17.6224C16.6046 17.5402 16.9284 17.3898 17.159 17.1592C17.3896 16.9285 17.54 16.6047 17.6222 15.9932C17.7068 15.3638 17.7082 14.5295 17.7082 13.3333C17.7082 12.1372 17.7068 11.3029 17.6222 10.6734C17.54 10.062 17.3896 9.73815 17.159 9.50751C16.9284 9.27688 16.6046 9.1265 15.9931 9.04429C15.3636 8.95967 14.5294 8.95834 13.3332 8.95834H6.6665C5.47032 8.95834 4.63606 8.95967 4.00661 9.04429Z" fill="#656565"/>
</svg>
