<svg width="48" height="48" viewBox="0 0 48 48" fill="none" xmlns="http://www.w3.org/2000/svg">
<path d="M40.4956 2.25024C38.8306 2.25103 37.5014 3.58513 37.5014 5.25024V25.7727L39.0029 24.8762L42.3618 26.8904C42.8609 27.1891 43.4955 26.8305 43.497 26.2488V5.25024C43.497 5.1982 43.4963 5.14636 43.4914 5.09496C43.4114 3.50287 42.1084 2.251 40.4956 2.25024ZM20.5488 13.3435C20.1353 13.3427 19.7989 13.6769 19.7973 14.0906V14.6897C19.3613 14.8239 18.971 15.0814 18.6738 15.4368C18.2838 15.9032 18.0895 16.501 18.1259 17.1082C18.1636 17.7127 18.4247 18.2803 18.8686 18.6975C19.3334 19.1345 19.8638 19.3153 20.2793 19.4666C20.6891 19.6158 21.0113 19.7515 21.1875 19.9148C21.3547 20.0698 21.4647 20.3183 21.4701 20.5461V20.5521C21.4758 20.7776 21.3754 21.0304 21.2152 21.1937C21.0554 21.3564 20.8016 21.4614 20.5737 21.4603C20.3458 21.4592 20.0945 21.3535 19.9364 21.1893C19.6498 20.888 19.1726 20.8777 18.8729 21.1658C18.5736 21.4545 18.5652 21.9316 18.8559 22.2293C19.1213 22.5049 19.4432 22.71 19.7964 22.8313V23.4641C19.7947 23.8806 20.1329 24.2187 20.5493 24.2171C20.9641 24.2162 21.2995 23.8789 21.2978 23.4641V22.8503C21.669 22.7344 22.0099 22.5287 22.288 22.2454C22.7399 21.7851 22.9846 21.1604 22.9692 20.5125C22.9551 19.8649 22.6796 19.2536 22.2046 18.8132C21.738 18.3807 21.2078 18.2051 20.7939 18.0544C20.3859 17.9059 20.0697 17.7696 19.896 17.6062C19.7426 17.462 19.6338 17.2339 19.619 17.0203V17.0143C19.6077 16.8031 19.6882 16.5613 19.8239 16.3991C19.9606 16.2357 20.1822 16.1151 20.3938 16.09C20.6052 16.0648 20.8497 16.1344 21.0208 16.2614C21.3553 16.5086 21.8273 16.4363 22.0725 16.1003C22.3171 15.7683 22.2477 15.301 21.9172 15.0544C21.7264 14.9129 21.5172 14.802 21.2975 14.7233V14.0906C21.296 13.6786 20.9606 13.3451 20.5488 13.3435ZM35.2485 33.7488C31.5298 33.7488 28.4999 36.7786 28.4999 40.4973C28.4999 44.216 31.5298 47.2459 35.2485 47.2459C38.9673 47.2459 41.9956 44.216 41.9956 40.4973C41.9956 36.7786 38.9673 33.7488 35.2485 33.7488ZM37.6142 38.4055C37.6465 38.4049 37.6803 38.4061 37.7123 38.4101C37.9096 38.4302 38.0907 38.5277 38.2162 38.6811C38.4801 39.0019 38.4328 39.4762 38.1108 39.7387L34.85 42.412C34.5656 42.6469 34.1525 42.6402 33.8759 42.3959L32.3642 41.0497C32.0556 40.7744 32.0281 40.3012 32.3027 39.992C32.5785 39.684 33.0515 39.6571 33.3603 39.932L34.3959 40.846L37.1586 38.5755C37.2873 38.4699 37.4478 38.41 37.6142 38.4055Z" fill="#000B5B"/>
<path d="M9.00206 0.748779C6.52585 0.748776 4.50244 2.77371 4.50244 5.24988L4.50244 46.498C4.50355 47.0792 5.13674 47.4383 5.63615 47.141L9.00206 45.1197L12.368 47.141C12.6053 47.283 12.9013 47.283 13.1384 47.141L16.5044 45.1197L19.8645 47.141C20.1029 47.2847 20.401 47.2847 20.6393 47.141L23.9994 45.1197L27.3653 47.141C27.6023 47.2824 27.8975 47.2824 28.1343 47.141L29.4555 46.3486C29.0958 45.9923 28.7687 45.6034 28.4785 45.187C27.5491 43.8526 27.0006 42.2335 27.0006 40.497C27.0006 38.1271 28.0188 35.9793 29.6385 34.4697C29.6329 34.4697 29.63 34.4697 29.6243 34.4697H10.8803C10.7853 34.4683 10.6912 34.449 10.6033 34.4125C10.5977 34.4111 10.592 34.4098 10.5863 34.408C10.5038 34.3724 10.4287 34.3223 10.3638 34.2601C10.3525 34.2507 10.344 34.2408 10.3346 34.2307C10.2737 34.1666 10.2246 34.0922 10.1895 34.0111C10.1866 34.0028 10.1838 33.9946 10.181 33.9861C10.1464 33.9004 10.1279 33.809 10.1268 33.7166V33.7137C10.1289 33.6264 10.1467 33.5401 10.1781 33.4588C10.1838 33.4435 10.1895 33.4284 10.1951 33.4134C10.2291 33.3391 10.2754 33.2708 10.3315 33.2113C10.3457 33.196 10.3601 33.1814 10.3754 33.1674C10.4352 33.1123 10.5036 33.0673 10.5775 33.0341C10.5945 33.0275 10.6118 33.0219 10.6288 33.0165C10.7048 32.9881 10.7836 32.9723 10.8647 32.9696C10.8703 32.9686 10.876 32.9675 10.8817 32.9668H29.6257C29.6371 32.968 29.6484 32.9693 29.658 32.9713C29.713 32.9736 29.7675 32.9821 29.8208 32.9963C30.1482 33.0829 30.3769 33.3782 30.3788 33.7169C30.3788 33.7686 30.3732 33.8201 30.3618 33.8707C31.7332 32.8541 33.4254 32.2492 35.2496 32.2492C35.5033 32.2492 35.7544 32.2617 36.0025 32.2844V29.9965V26.6686V5.24999C36.0025 3.02852 37.6284 1.17206 39.7507 0.81334C39.5075 0.772209 39.2584 0.748877 39.0037 0.748877L9.00206 0.748779ZM20.5499 10.5317C25.097 10.5317 28.7993 14.2329 28.7993 18.7795C28.7993 23.3262 25.097 27.0289 20.5499 27.0289C16.0029 27.0289 12.2962 23.3262 12.2962 18.7795C12.2962 14.2329 16.0029 10.5317 20.5499 10.5317ZM10.8799 29.9671H20.6276C20.6333 29.968 20.6389 29.9691 20.6446 29.9699C20.7237 29.9733 20.8022 29.9889 20.8759 30.0168C20.8929 30.0225 20.9108 30.0287 20.9286 30.0358C21.0023 30.0696 21.0701 30.1151 21.1293 30.1706C21.1435 30.1833 21.1591 30.1964 21.1718 30.2101C21.2282 30.2701 21.2742 30.3388 21.3082 30.4137C21.3138 30.4287 21.3195 30.4438 21.3252 30.4591C21.3569 30.54 21.3742 30.6257 21.3765 30.7125V30.7154C21.3764 30.7458 21.3742 30.7761 21.3708 30.8062V30.8092V30.8121C21.3703 30.8136 21.3698 30.8148 21.3693 30.8166C21.3665 30.8472 21.3608 30.8776 21.3523 30.9075V30.9104C21.3438 30.9413 21.3325 30.9716 21.3215 31.0012C21.3101 31.0304 21.2959 31.0602 21.2789 31.0876C21.2785 31.0886 21.2779 31.0897 21.2775 31.0905C21.2605 31.118 21.2425 31.1458 21.2233 31.171C21.2034 31.1974 21.1819 31.2223 21.1589 31.2457C21.1362 31.2687 21.1116 31.2903 21.0858 31.3102C20.9551 31.412 20.7944 31.4675 20.6288 31.4684H10.881C10.7861 31.467 10.692 31.4477 10.6041 31.4113C10.5984 31.4098 10.5928 31.4086 10.5871 31.4067C10.5046 31.3711 10.4295 31.321 10.3646 31.2588C10.3532 31.2494 10.3447 31.2395 10.3354 31.2295C10.2744 31.1653 10.2254 31.091 10.1902 31.0098C10.1874 31.0016 10.1846 30.9933 10.1817 30.9848C10.1471 30.8991 10.1287 30.8078 10.1276 30.7153V30.7124C10.1298 30.624 10.1474 30.5368 10.1803 30.4546C10.186 30.4405 10.1888 30.4262 10.1945 30.4121C10.2291 30.3365 10.2761 30.2672 10.3337 30.2071C10.345 30.1943 10.3564 30.1821 10.3702 30.1705C10.4306 30.114 10.4998 30.0681 10.5755 30.0342C10.5925 30.0271 10.6103 30.0209 10.6282 30.0152C10.7039 29.9875 10.7835 29.9722 10.864 29.9698C10.8697 29.9689 10.8742 29.9678 10.8799 29.9671ZM10.8799 35.9681H25.1228C25.1285 35.969 25.1341 35.9701 25.1398 35.9709C25.2203 35.9733 25.3 35.9885 25.3757 36.0163C25.3927 36.022 25.4111 36.0282 25.4284 36.0353C25.5038 36.0691 25.5732 36.1151 25.6336 36.1715C25.645 36.1834 25.6563 36.1956 25.6687 36.2082C25.7263 36.2683 25.7734 36.3376 25.8079 36.4132C25.8136 36.4271 25.8193 36.4413 25.8221 36.4557C25.8547 36.5379 25.8726 36.6251 25.8749 36.7135V36.7164C25.8748 36.7473 25.8726 36.7781 25.8692 36.8087V36.8116V36.8146C25.8664 36.8437 25.8578 36.874 25.8521 36.9025C25.8517 36.9049 25.8512 36.9073 25.8507 36.9098C25.8497 36.9127 25.8487 36.9158 25.8479 36.9186C25.8394 36.9475 25.8309 36.9759 25.8187 37.0036C25.8073 37.0333 25.7932 37.0636 25.7761 37.0915C25.7591 37.12 25.7407 37.1474 25.7206 37.1735C25.7007 37.1999 25.6792 37.2248 25.6562 37.2482C25.5627 37.3419 25.4459 37.4091 25.3179 37.4431C25.2544 37.4603 25.1889 37.4691 25.1232 37.4694H10.8802C10.7852 37.4681 10.6911 37.4487 10.6032 37.4123C10.5976 37.4109 10.5919 37.4096 10.5862 37.4078C10.5037 37.3722 10.4286 37.3221 10.3637 37.2598C10.3524 37.2505 10.3439 37.2406 10.3345 37.2305C10.2736 37.1664 10.2245 37.092 10.1894 37.0108C10.1865 37.0026 10.1837 36.9944 10.1809 36.9859C10.1463 36.9001 10.1279 36.8088 10.1267 36.7164V36.7135C10.129 36.6251 10.1466 36.5378 10.1795 36.4557C10.1851 36.4415 10.188 36.4272 10.1936 36.4132C10.2282 36.3376 10.2753 36.2683 10.3328 36.2081C10.3441 36.1954 10.3555 36.1832 10.3694 36.1715C10.4298 36.1151 10.4989 36.0691 10.5746 36.0353C10.5916 36.0282 10.6095 36.0219 10.6273 36.0163C10.703 35.9885 10.7827 35.9733 10.8632 35.9709C10.8688 35.9699 10.8742 35.9687 10.8799 35.9681Z" fill="#000B5B" fill-opacity="0.24"/>
</svg>
