<svg width="20" height="20" viewBox="0 0 20 20" fill="none" xmlns="http://www.w3.org/2000/svg">
<path fill-rule="evenodd" clip-rule="evenodd" d="M4.77402 1.70131C5.78776 0.693327 7.45691 0.872748 8.30576 2.00662L9.35585 3.40932C10.0465 4.33192 9.98559 5.62136 9.16573 6.43656L8.9669 6.63427C8.95821 6.6595 8.93715 6.73879 8.96053 6.88948C9.01317 7.22882 9.29654 7.94866 10.4862 9.13152C11.6753 10.314 12.4003 10.597 12.7444 10.6498C12.9004 10.6738 12.982 10.6515 13.0072 10.6427L13.347 10.3048C14.0758 9.58011 15.1958 9.44465 16.0982 9.93519L17.6892 10.8001C19.0515 11.5407 19.3957 13.3925 18.2796 14.5023L17.0966 15.6786C16.7239 16.0492 16.2226 16.3582 15.6109 16.4152C14.1044 16.5557 10.5917 16.3765 6.9008 12.7065C3.45492 9.28023 2.79366 6.2923 2.71 4.82013L3.33356 4.78469L2.71 4.82013C2.66769 4.07572 3.01946 3.44591 3.46692 3.00099L4.77402 1.70131ZM7.30579 2.75522C6.88389 2.19166 6.09754 2.14685 5.65477 2.5871L4.34767 3.88677C4.07293 4.15996 3.94074 4.46103 3.95712 4.74926C4.0236 5.91895 4.55764 8.61515 7.78156 11.8208C11.1638 15.1838 14.2876 15.284 15.495 15.1715C15.7417 15.1485 15.987 15.0203 16.2158 14.7928L17.3988 13.6165C17.8797 13.1384 17.7736 12.2678 17.0926 11.8975L15.5016 11.0327C15.0623 10.7938 14.5476 10.8726 14.2278 11.1906L13.8485 11.5677L13.4081 11.1248C13.8485 11.5677 13.8479 11.5683 13.8473 11.5689L13.8461 11.5701L13.8435 11.5726L13.8381 11.5778L13.8259 11.5892C13.8172 11.5971 13.8072 11.6059 13.7958 11.6153C13.7732 11.634 13.7454 11.6552 13.7122 11.6775C13.6455 11.7221 13.5574 11.7707 13.4468 11.8119C13.2213 11.896 12.9238 11.9411 12.5551 11.8845C11.8332 11.7738 10.877 11.2817 9.6054 10.0173C8.33421 8.75333 7.83795 7.80154 7.72616 7.08098C7.669 6.71252 7.71459 6.41497 7.79963 6.18925C7.84132 6.07862 7.89044 5.99066 7.93551 5.92413C7.95799 5.89095 7.97939 5.86321 7.99827 5.84068C8.00771 5.82942 8.01653 5.81944 8.02456 5.81072L8.036 5.79857L8.04123 5.79319L8.04373 5.79068L8.04494 5.78946C8.04554 5.78886 8.04613 5.78827 8.48651 6.23116L8.04613 5.78827L8.28498 5.55078C8.6419 5.19589 8.69189 4.60675 8.35588 4.15792L7.30579 2.75522Z" fill="#656565"/>
</svg>
