<svg width="22" height="22" viewBox="0 0 22 22" fill="none" xmlns="http://www.w3.org/2000/svg">
<path d="M9.87272 16.775C8.50753 16.775 7.173 16.3701 6.03789 15.6117C4.90278 14.8532 4.01807 13.7752 3.49564 12.5139C2.97321 11.2527 2.83651 9.86482 3.10285 8.52586C3.36918 7.18691 4.02658 5.957 4.99191 4.99167C5.95725 4.02634 7.18715 3.36894 8.52611 3.1026C9.86506 2.83627 11.2529 2.97296 12.5142 3.4954C13.7755 4.01783 14.8535 4.90254 15.6119 6.03765C16.3704 7.17276 16.7752 8.50729 16.7752 9.87247C16.7752 10.7789 16.5967 11.6765 16.2498 12.5139C15.9029 13.3514 15.3945 14.1123 14.7535 14.7533C14.1126 15.3942 13.3516 15.9027 12.5142 16.2496C11.6767 16.5964 10.7792 16.775 9.87272 16.775ZM9.87272 4.35414C8.78492 4.35414 7.72155 4.67671 6.81708 5.28106C5.91261 5.88541 5.20766 6.74439 4.79138 7.74938C4.3751 8.75437 4.26618 9.86024 4.4784 10.9271C4.69062 11.994 5.21444 12.974 5.98363 13.7432C6.75282 14.5124 7.73283 15.0362 8.79972 15.2485C9.86662 15.4607 10.9725 15.3518 11.9775 14.9355C12.9825 14.5192 13.8415 13.8142 14.4458 12.9098C15.0501 12.0053 15.3727 10.9419 15.3727 9.85414C15.3727 8.39545 14.7933 6.9965 13.7618 5.96505C12.7304 4.9336 11.3314 4.35414 9.87272 4.35414Z" fill="#656565"/>
<path d="M18.3331 19.0208C18.2428 19.0212 18.1533 19.0036 18.0699 18.969C17.9864 18.9344 17.9108 18.8834 17.8473 18.8192L14.0615 15.0333C13.94 14.903 13.8739 14.7306 13.8771 14.5525C13.8802 14.3744 13.9524 14.2045 14.0783 14.0785C14.2043 13.9525 14.3742 13.8804 14.5523 13.8772C14.7304 13.8741 14.9028 13.9402 15.0331 14.0617L18.819 17.8475C18.9477 17.9764 19.02 18.1511 19.02 18.3333C19.02 18.5155 18.9477 18.6902 18.819 18.8192C18.7555 18.8834 18.6798 18.9344 18.5964 18.969C18.513 19.0036 18.4235 19.0212 18.3331 19.0208Z" fill="#656565"/>
</svg>
